<?xml version="1.0" encoding="utf-8"?>
<!-- Generator: Adobe Illustrator 21.0.0, SVG Export Plug-In . SVG Version: 6.00 Build 0)  -->
<svg version="1.1" id="Layer_1" xmlns="http://www.w3.org/2000/svg" xmlns:xlink="http://www.w3.org/1999/xlink" x="0px" y="0px"
	 viewBox="0 0 612 300" style="enable-background:new 0 0 612 300;" xml:space="preserve">
<style type="text/css">
	.st0{fill:#2E3192;}
	.st1{fill:#ED1C24;}
</style>
<g>
	<path class="st0" d="M52.7,186l-1.9,10.1c-0.3,2.2-0.8,5.3-1.5,9c-3.5,19.3-6.3,31.9-8.5,38c-0.4,1.2-1.3,3-2.5,5.4
		c-4.1,6-9.2,9-15.1,9c-4.7,0-8.5-1.7-11.4-5c-2.9-3.3-4.3-7.6-4.3-12.8c0-3.8,0.8-10.5,2.5-20.3c1.7-9.7,3.5-19,5.6-27.8
		c-5-1.5-7.5-4.9-7.5-10.3c0-3.8,0.8-8,2.3-12.8c1.6-4.7,3.5-9,5.9-12.8s4.6-6.2,6.9-7.4c1-4.4,2.8-13.6,5.5-27.7
		c6.1-30.5,11-51,14.7-61.4c1.5-3.5,2.8-6.2,3.9-8.1c3.3-5,7.5-7.5,12.7-7.5c3.2,0,6,0.9,8.5,2.7c2.5,1.8,4.3,4.2,5.6,7.3
		c1.3,3.1,2,6.8,2,10.9c0,5.8-4.6,30.3-13.7,73.3c-0.1,0.7-0.3,1.8-0.6,3.1c-0.3,1.4-0.6,2.6-0.8,3.8l-0.4,1.2l35.2-1.2l1.7-9.6
		c2-10.4,4-20.7,6.2-30.8c2.2-10.2,4-18.3,5.6-24.5c1.6-6.2,3.1-11.6,4.7-16.3c1.6-4.7,3.1-8.2,4.5-10.6c3.3-5.8,7.9-8.7,13.7-8.7
		c9.9,0,14.9,6.9,14.9,20.7c0,13-4.3,36.6-13,70.9c-1.3,5.1-2,8.2-2.3,9.3c0.3-0.1,0.5-0.2,0.7-0.2c0.2-0.1,0.4-0.1,0.7-0.1
		c3.5,0,6.2,1,8.2,3c2,2,3,4.7,3,8c0,2.2-0.9,5.5-2.6,9.7c-1.7,4.2-3.5,7.9-5.5,11.1c-1.9,3.2-3.6,5.5-5,6.8
		c-1.3,1.1-3.9,2.3-7.8,3.5l-0.4,2.5c-0.4,1.5-1.1,4.3-2,8.4c-1.3,5.9-2.7,11.9-4.1,17.8c-1.4,6-2.6,10.6-3.5,13.9
		c-0.9,3.3-1.8,6.1-2.7,8.3c-1.1,2.4-2.3,4.5-3.7,6.3c-3.1,3.8-6.6,6.9-10.5,9.3c-4,2.4-7.2,3.6-9.9,3.6c-3,0-5.4-1.2-7.1-3.5
		c-1.7-2.3-2.6-5.7-2.6-9.9c0-7.3,2.4-22.6,7.2-45.8c1.1-5.1,1.9-8.8,2.4-11.2L52.7,186z"/>
</g>
<g>
	<path class="st0" d="M175.1,124.8l-2.6,12.2c-3.4,15.7-6.5,31.3-9.5,46.8c-1.4,7.5-3.5,20.6-6.4,39.4c4.3-0.7,10.2-2.5,17.5-5.3
		c4.7-1.8,7.5-2.7,8.5-2.7c1.8,0,2.7,1.4,2.7,4.3c0,3.4-1,8.1-3,14.1c-2,6.1-4.3,11.3-6.8,15.6c-1.7,3.2-4.3,5.3-7.7,6.6
		c-3.4,1.2-8.7,1.8-15.9,1.8c-6.7,0-11.9-0.4-15.6-1.2c-0.1,0-0.9-0.5-2.6-1.5c-3-2.4-4.5-7.5-4.5-15.3c0-5.6,0.8-15.8,2.5-30.7
		c1.6-14.8,4-33.3,7.2-55.4c7.1-49.2,12.4-79.6,16.1-91.2c1.1-4,2.6-7,4.3-9.2c1.7-2.2,4.1-3.9,7.2-5.1c2.9-1.2,6.3-1.8,10.1-1.8
		c3.5,0,6,0.9,7.5,2.7c1.4,1.8,2.2,4.9,2.2,9.2c0,4.2-0.9,12-2.8,23.4C181.6,92.9,178.8,107.3,175.1,124.8z"/>
</g>
<g>
	<path class="st1" d="M223,224.2v16l-1.9,3.2v-21.6h-5.4l-0.5,2.1c0.7,0.2,1.2,0.6,1.6,1.2c0.4,0.5,0.6,1.2,0.6,2.1v10.6
		c0,1.1-0.6,2.1-1.7,3.2c-1.1,1.1-1.8,1.6-2.2,1.6s-0.8-0.3-1.5-1c-0.8-0.7-1.3-1.4-1.7-2c-0.4-0.6-0.7-1.5-0.9-2.5
		c0.2-0.1,0.3-0.3,0.4-0.6c0.1-0.2,0.1-0.5,0.1-0.8v-6.9c0-0.6-0.4-1.1-1.3-1.3c-0.3-0.1-0.4-0.3-0.4-0.7c0-0.4,0.1-1,0.2-1.6
		l1.5-6.6h2.8c0,1.3-0.1,2.4-0.2,3.3c-0.2,0.9-0.4,1.6-0.8,2c0.1-0.6,0.1-1.2,0.1-1.5c0-0.4-0.2-0.5-0.5-0.5h-1.2l-0.6,2.8
		c0.8,0.2,1.4,0.6,1.8,1.2c0.4,0.5,0.6,1.2,0.6,2.1v8.2c0,0.4-0.1,0.8-0.2,1c0,0.4,0.4,0.9,1.3,1.8c0.9,0.9,1.5,1.3,1.8,1.3
		c0.2,0,0.4-0.1,0.6-0.2c0.2-0.1,0.2-0.8,0.2-2v-9.6c0-0.6-0.4-1.1-1.1-1.3c-0.3-0.1-0.4-0.3-0.4-0.7c0-0.4,0.1-1,0.2-1.6l1.4-6h7.5
		v3.2c0.9-2.1,1.9-3.2,2.9-3.2h2.7v21.6l-1.9,3.2v-21.6h-1.1C224.6,221.8,223.7,222.6,223,224.2z"/>
	<path class="st1" d="M238.6,223.6c0.8,1.1,1.2,2.1,1.2,3v13.6l-0.7,1.2c-0.5,0.8-0.8,1.2-0.9,1.2c-0.2,0-0.4-0.4-0.9-1.3l-1.9-3.9
		l-2.2,4.6c-0.2,0.4-0.4,0.7-0.6,0.7s-0.2-0.2-0.2-0.6v-7.5l-1.2-1.6c-0.3-0.3-0.4-0.8-0.4-1.3c0-1.1,0.1-1.9,0.4-2.4l0.9-1.7
		c0.3-0.6,0.6-0.8,1-0.8c0.4,0,0.7,0.3,1.1,1v10.1l1.9-3.8l1.9,3.8v-11.1c0-0.8-0.2-1.6-0.5-2.4c-0.1,0-0.3,0-0.4,0h-1.9
		c-1,0-1.6,0.3-1.9,0.8c-0.6-0.3-0.9-0.9-0.9-1.6v-7.5c0-0.4-0.1-0.6-0.2-0.6s-0.4,0.2-0.7,0.5c0.6-2.3,1.2-3.5,1.7-3.5
		c0.7,0,1.1,1.2,1.1,3.7v5.9h2c-0.1-0.3-0.1-0.6-0.1-0.8c0-0.8,0.2-1.4,0.5-1.9c0.3-0.5,0.8-0.8,1.4-0.8s1.1,0.3,1.4,1
		c0.3,0.6,0.5,1.3,0.5,2c0,0.7-0.3,1.3-0.8,2C238.8,223.4,238.7,223.5,238.6,223.6z M232.3,232.4v-1.2l-0.4,0.7L232.3,232.4z
		 M237.2,221.8c0.4,0,0.6-0.1,0.7-0.2c0.1-0.1,0.1-0.3-0.1-0.7c-0.4-0.9-0.7-1.1-0.9-0.4C236.8,220.8,236.9,221.2,237.2,221.8z"/>
	<path class="st1" d="M251,236.1c0,0.4-0.1,0.8-0.2,1c0,0.4,0.4,0.9,1.3,1.8c0.9,0.9,1.5,1.3,1.8,1.3c0.2,0,0.4-0.1,0.6-0.2
		c0.2-0.1,0.2-0.8,0.2-2v-9c0-0.6-0.4-1.1-1.3-1.3c-0.3-0.1-0.4-0.3-0.4-0.7c0-0.4,0.1-1,0.2-1.6l1.5-6.6h2.8c0,1.3-0.1,2.4-0.2,3.3
		c-0.2,0.9-0.4,1.6-0.8,2c0.1-0.6,0.1-1.2,0.1-1.5c0-0.4-0.2-0.5-0.5-0.5h-1.2l-0.6,2.8c0.8,0.2,1.4,0.6,1.8,1.2
		c0.4,0.5,0.6,1.2,0.6,2.1v10c0,1.1-0.6,2.1-1.7,3.2c-1.1,1.1-1.8,1.6-2.2,1.6c-0.3,0-0.8-0.3-1.5-1c-0.8-0.7-1.3-1.4-1.7-2
		c-0.4-0.6-0.7-1.5-0.9-2.5c0.2-0.1,0.3-0.3,0.4-0.6c0.1-0.2,0.1-0.5,0.1-0.8v-13.9h-5.4l-0.5,2.1c0.7,0.2,1.2,0.6,1.6,1.2
		c0.4,0.5,0.6,1.2,0.6,2.1v5h0.5c0.9,0,1.4,0.8,1.4,2.4c0,1.6-0.4,3.1-1.2,4.5l-1.6,2.8c-0.3,0.5-0.5,0.7-0.6,0.7s-0.2-0.2-0.2-0.6
		v-13.8c0-0.6-0.4-1.1-1.1-1.3c-0.3-0.1-0.4-0.3-0.4-0.7c0-0.4,0.1-1,0.2-1.6l1.4-6h7.5V236.1z M245.4,237.7
		c0.6-0.9,0.8-1.7,0.8-2.4c0-0.4-0.1-0.7-0.4-0.7h-0.5V237.7z"/>
	<path class="st1" d="M261.1,226.6c-0.2-0.6-0.4-1-0.7-1.2c-0.3-0.3-0.7-0.4-1.1-0.4l1.9-6.4h2.9c0.2,0,0.4,0.5,0.4,1.6
		c0.4-1.1,0.7-1.6,1-1.6h2.7c0,1.3-0.1,2.4-0.2,3.3c-0.2,0.9-0.5,1.7-1,2.3c0.1-0.9,0.2-1.5,0.2-1.8c0-0.4-0.1-0.6-0.4-0.5h-1.7
		c-0.4,0-0.8,0.6-1.2,1.9c0.2-1.3,0.1-1.9-0.3-1.9h-2.4l-0.2,0.8c0.4,0.3,0.8,0.7,1.1,1.2c0.3,0.5,0.4,1.1,0.1,1.7
		C261.9,226.1,261.5,226.5,261.1,226.6z M260.3,243.4v-13.6c0-1.1,0.5-2.1,1.6-3.2c1.1-1.1,1.8-1.6,2.1-1.6c0.3,0,0.8,0.3,1.5,1
		c1.5,1.5,2.2,2.7,2.2,3.8v10.4l-1.9,3.2v-12.8c0-0.4-0.4-1-1.3-1.8c-0.9-0.8-1.4-1.3-1.6-1.3s-0.4,0.1-0.6,0.2
		c-0.2,0.1-0.2,0.8-0.2,2v10.4L260.3,243.4z"/>
	<path class="st1" d="M263.1,217v-8.8l1.9-3.2v8.8L263.1,217z"/>
	<path class="st1" d="M271.3,227.8l-0.5-0.7c0-1.3,0.1-2.5,0.4-3.6l1.2-4.8h6.8c0,1.3-0.1,2.5-0.3,3.5l-0.5,2.3
		c-0.3,1.5-0.8,2.3-1.6,2.3c-0.8,0-1.8-0.7-3.1-2l1.6-2.1c0.6,0.6,1.1,0.9,1.6,0.9c0.5,0,0.9-0.3,1-0.8c0.1-0.5,0-0.8-0.3-0.8h-5.2
		l-0.6,2.6l0.8,1.3c0.5,0.9,1.3,1.6,2.3,2l2.6,1.2c0.6,0.3,1.1-0.1,1.6-1.1c0,1.6-0.2,2.8-0.7,3.5c-0.5,0.7-0.9,0.9-1.4,0.7
		l-0.6-0.3l-1.9-0.9C273.3,230.3,272.2,229.2,271.3,227.8z M273.3,231.8v5.3c0,0.4,0.4,1,1.3,1.8c0.9,0.8,1.4,1.3,1.6,1.3
		c0.2,0,0.4-0.1,0.6-0.2c0.2-0.1,0.2-0.8,0.2-2v-5c0.4,0.1,0.8,0,1.1-0.3c0.3-0.3,0.6-0.7,0.7-1.2v6.6c0,1.1-0.5,2.1-1.6,3.2
		s-1.8,1.6-2.1,1.6c-0.3,0-0.8-0.3-1.5-1c-1.5-1.5-2.2-2.7-2.2-3.8v-4.5l1.1-1.8c0.2-0.4,0.4-0.6,0.6-0.6
		C273.2,231,273.3,231.2,273.3,231.8z"/>
	<path class="st1" d="M274.9,254.6c-0.3-0.5-0.5-1.1-0.5-1.6v-3.4c-0.4,0.3-0.7,0.3-1-0.1c-0.3-0.4-0.5-0.8-0.5-1.4
		c0-0.5,0.3-1.3,0.8-2.4c0.6-1.1,1-1.6,1.4-1.6c0.4,0,0.7,0.3,1.1,1v8.2c0.5-0.2,0.8-0.5,1-0.9c0.2-0.4,0.3-1,0.3-1.8
		c0-0.5-0.1-1.1-0.3-1.6c-0.2-0.5-0.3-1.3-0.3-2.3c0-0.6,0.2-1.2,0.5-1.7c0.3-0.5,0.8-1,1.4-1.4c-0.4,1-0.6,1.7-0.6,2.3
		c0,0.7,0.2,1.4,0.6,2c0.4,0.6,0.6,1.5,0.6,2.7c0,0.7-0.5,1.7-1.5,3c-1,1.2-1.7,1.8-2.1,1.8C275.5,255.4,275.2,255.2,274.9,254.6z
		 M274.4,248.2v-0.7c-0.3,0.4-0.4,0.7-0.4,0.8C274.1,248.4,274.2,248.4,274.4,248.2z"/>
	<path class="st1" d="M284.5,240.2l-1,1.8c-0.2,0.4-0.4,0.6-0.6,0.6s-0.2-0.2-0.2-0.6c0-0.9-0.3-1.8-0.9-2.8c-0.6-1-0.9-2-0.9-3.1
		c0-0.5,0.2-1,0.5-1.3l1.3-1.6v-4.5c0-0.6-0.4-1.1-1.3-1.3c-0.3-0.1-0.4-0.3-0.4-0.7c0-0.4,0.1-1,0.2-1.6l1.5-6.6h2.8
		c0,1.3-0.1,2.4-0.2,3.3c-0.2,0.9-0.4,1.6-0.8,2c0.1-0.6,0.1-1.2,0.1-1.5c0-0.4-0.2-0.5-0.5-0.5h-1.2l-0.6,2.8
		c0.8,0.2,1.4,0.6,1.8,1.2c0.4,0.5,0.6,1.2,0.6,2.1V240.2z M282.7,234.9l-0.5,0.7l0.5,1V234.9z"/>
	<path class="st1" d="M289.5,227c-0.2-0.6-0.4-1-0.7-1.3c-0.3-0.4-0.8-0.6-1.5-0.6l1.9-6.4h6.2c0,1.3-0.1,2.4-0.2,3.3
		c-0.2,0.9-0.5,1.7-1,2.3c0.1-0.9,0.2-1.5,0.2-1.8c0-0.4-0.1-0.6-0.4-0.5h-4.9l-0.2,0.8c0.6,0.4,1,0.9,1.4,1.6
		c0.2,0.4,0.4,0.9,0.6,1.4c0.5-0.4,0.8-0.6,1-0.6c0.3,0,0.8,0.3,1.5,1c1.5,1.5,2.2,2.7,2.2,3.8v6.2c0,0.4-0.1,0.8-0.2,1
		c0,0.4,0.4,0.9,1.3,1.8c0.9,0.9,1.5,1.3,1.8,1.3s0.4-0.1,0.6-0.2c0.2-0.1,0.2-0.8,0.2-2v-9c0-0.6-0.4-1.1-1.3-1.3
		c-0.3-0.1-0.4-0.3-0.4-0.7c0-0.4,0.1-1,0.2-1.6l1.5-6.6h2.8c0,1.3-0.1,2.4-0.2,3.3c-0.2,0.9-0.4,1.6-0.8,2c0.1-0.6,0.1-1.2,0.1-1.5
		c0-0.4-0.2-0.5-0.5-0.5h-1.2l-0.6,2.8c0.8,0.2,1.4,0.6,1.8,1.2c0.4,0.5,0.6,1.2,0.6,2.1v10c0,1.1-0.6,2.1-1.7,3.2
		c-1.1,1.1-1.8,1.6-2.2,1.6c-0.3,0-0.8-0.3-1.5-1c-0.8-0.7-1.3-1.4-1.7-2c-0.4-0.6-0.7-1.5-0.9-2.5c0.2-0.1,0.3-0.3,0.4-0.6
		c0.1-0.2,0.1-0.5,0.1-0.8v-5.1c0-0.4-0.4-1-1.3-1.8c-0.9-0.8-1.4-1.3-1.6-1.3s-0.4,0.1-0.6,0.2c-0.2,0.1-0.2,0.8-0.2,2v4h0.5
		c0.5,0,0.8,0.1,1.1,0.4c0.2,0.3,0.3,0.6,0.3,1.2c0,1.1-0.4,2.3-1.2,3.7l-1.6,2.8c-0.3,0.5-0.5,0.7-0.6,0.7s-0.2-0.2-0.2-0.6v-12.2
		C288.2,228.9,288.7,227.9,289.5,227z M290.1,237.7c0.6-0.9,0.8-1.6,0.8-1.8c0-0.3-0.1-0.4-0.4-0.4h-0.5V237.7z"/>
	<path class="st1" d="M299.6,216.9c-0.3,0.1-0.5,0.1-0.8,0.1c-0.4,0-0.7-0.1-1.1-0.3c-1.3-0.6-2-1.3-2-2.2c0-0.4,0.3-1.3,0.8-2.8
		c0.4-0.8,0.7-1.4,1.2-1.7c0.4-0.3,0.9-0.3,1.4-0.1c0.5,0.2,0.8,0.6,1,1c0.1,0.4,0.1,0.9-0.2,1.5c-0.2,0.4-0.5,0.7-0.8,0.9
		c-0.3,0.1-0.7,0.1-1.2-0.1c0.1-0.4,0-0.7-0.3-0.8c-0.3-0.1-0.5,0-0.7,0.4c-0.1,0.4,0.4,0.8,1.5,1.3c0.6,0.3,1.1,0.4,1.5,0.3
		c0.4-0.1,0.8-0.3,1.1-0.7c0.3-0.4,0.5-0.9,0.5-1.4c0.1-0.5,0-1.1-0.2-1.8c-0.4-1.3-0.6-2.6-0.6-3.9c0-0.7,0.1-1.3,0.4-1.9
		c0.3-0.6,0.7-1.1,1.4-1.4c-0.4,0.9-0.6,1.7-0.6,2.4c0,0.4,0.2,1.1,0.5,2.1c0.3,1,0.5,2,0.5,3.1c0,0.7-0.1,1.5-0.4,2.2
		c-0.3,0.7-0.7,1.5-1.3,2.3C300.8,216.2,300.2,216.7,299.6,216.9z"/>
	<path class="st1" d="M305.2,221.8l-0.5,2.1c0.7,0.2,1.2,0.6,1.6,1.2c0.4,0.5,0.6,1.2,0.6,2.1v5h0.5c0.9,0,1.4,0.8,1.4,2.4
		c0,1.6-0.4,3.1-1.2,4.5l-1.6,2.8c-0.3,0.5-0.5,0.7-0.6,0.7s-0.2-0.2-0.2-0.6v-13.8c0-0.6-0.4-1.1-1.1-1.3c-0.3-0.1-0.4-0.3-0.4-0.7
		c0-0.4,0.1-1,0.2-1.6l1.4-6h2.8c0.4,0,0.7,0.7,0.7,2.1c0.5-1.4,1-2.1,1.5-2.1h2.5v21.6l-1.9,3.2v-21.6h-0.9c-0.6,0-1.2,0.9-1.9,2.6
		l0.1-0.7c0.1-1.3,0-1.9-0.4-1.9H305.2z M306.9,237.7c0.6-0.9,0.8-1.7,0.8-2.4c0-0.4-0.1-0.7-0.4-0.7h-0.5V237.7z"/>
	<path class="st1" d="M310.1,244.6c0.3,0.3,0.5,0.8,0.5,1.6s-0.6,1.7-1.9,2.6c-1.2,0.9-1.9,1.8-1.9,2.7c0,0.5,0.2,1,0.5,1.3
		c0.4,0.3,1,0,1.9-1.1c0.9-1,1.3-2,1.3-2.8l1.9-3.2v7.2l-1.9,3.2v-4.5l-1.1,1.8c-0.7,1.2-1.4,1.8-1.9,1.8c-0.5,0-1.1-0.4-1.7-1.1
		c-0.6-0.7-0.9-1.6-0.9-2.7c0-1.8,0.7-2.9,2-3.3c1.3-0.4,2-1.7,2-4.1C309.4,244.2,309.8,244.4,310.1,244.6z"/>
	<path class="st1" d="M316.4,212.3c-0.3,1.1-0.1,1.6,0.7,1.6c1.1,0,1.7-0.5,2-1.4c0.2-0.9-0.1-1.4-1-1.4c-1.9,0-3,0.4-3.4,1.2
		c0.8-3.5,1-5.4,0.8-5.9c-0.2-0.4-0.9-0.6-1.9-0.6c0.5-2.1,1-3.2,1.5-3.2c0.5,0,1,0.3,1.5,1c0.5,0.7,0.3,2.6-0.4,5.7
		c0.5-0.9,1.1-1.4,1.9-1.4c1,0,1.8,0.4,2.1,1.2c0.2,0.3,0.2,0.8,0.2,1.3c0,0.1,0,0.1,0,0.2c0,0.6-0.1,1.3-0.4,2.2
		c-0.4,1.4-0.8,2.5-1.3,3.2c-0.5,0.7-1,1.1-1.6,1.1c-1.6,0-2.4-0.6-2.4-1.8C314.7,214.1,315.3,213.1,316.4,212.3z M316.2,228.9
		c0-0.6-0.4-1.1-1.3-1.3c-0.3-0.1-0.4-0.3-0.4-0.7c0-0.4,0.1-1,0.2-1.6l1.5-6.6h2.8c0,1.3-0.1,2.4-0.2,3.3c-0.2,0.9-0.4,1.6-0.8,2
		c0.1-0.6,0.1-1.2,0.1-1.5c0-0.4-0.2-0.5-0.5-0.5h-1.2l-0.6,2.8c0.8,0.2,1.4,0.6,1.8,1.2c0.4,0.5,0.6,1.2,0.6,2.1v4.4h0.4
		c0.5,0,0.8,0.2,1.1,0.5c0.2,0.4,0.3,0.9,0.3,1.6c0,1.3-0.4,2.7-1.2,4.3l-1.6,3.2c-0.3,0.5-0.5,0.8-0.6,0.8s-0.2-0.2-0.2-0.6V228.9z
		 M318,237.4c0.5-0.9,0.7-1.7,0.7-2.2c0-0.3-0.1-0.5-0.3-0.5H318V237.4z"/>
	<path class="st1" d="M323.3,226.1c-1.5-0.7-2.2-1.4-2.2-2.3c0-0.4,0.3-1.4,0.9-3c0.4-0.9,0.8-1.5,1.3-1.8c0.5-0.3,1-0.4,1.5-0.1
		c0.6,0.2,0.9,0.6,1.1,1c0.1,0.4,0.1,1-0.2,1.6c-0.4,1-1.1,1.3-2.1,0.9c0.1-0.4,0-0.7-0.3-0.9c-0.3-0.1-0.6,0-0.7,0.4
		c-0.2,0.4,0.4,0.9,1.7,1.4c1.3,0.6,2.2,0.4,2.9-0.4c0.6-0.9,0.7-2,0.3-3.4c-0.4-1.4-0.7-2.8-0.7-4.2c0-0.7,0.2-1.4,0.5-2
		c0.3-0.6,0.8-1.2,1.5-1.5c-0.4,0.9-0.6,1.8-0.6,2.5c0,0.4,0.2,1.2,0.5,2.3c0.4,1.1,0.5,2.2,0.5,3.3c0,1.6-0.6,3.2-1.9,4.9
		C326.1,226.3,324.7,226.8,323.3,226.1z M323.6,228.2v9.5l1.9-3.8l1.9,3.8v-9.5l1.9-3.2v15.2l-0.7,1.2c-0.5,0.8-0.8,1.2-0.9,1.2
		c-0.2,0-0.4-0.4-0.9-1.3l-1.9-3.9l-2.2,4.6c-0.2,0.4-0.4,0.7-0.6,0.7s-0.2-0.2-0.2-0.6v-13.8H323.6z"/>
	<path class="st1" d="M332.8,227.8l-0.5-0.7c0-1.3,0.1-2.5,0.4-3.6l1.2-4.8h6.8c0,1.3-0.1,2.5-0.3,3.5l-0.5,2.3
		c-0.3,1.5-0.8,2.3-1.6,2.3s-1.8-0.7-3.1-2l1.6-2.1c0.6,0.6,1.1,0.9,1.6,0.9c0.5,0,0.9-0.3,1-0.8c0.1-0.5,0-0.8-0.3-0.8H334
		l-0.6,2.6l0.8,1.3c0.5,0.9,1.3,1.6,2.3,2l2.6,1.2c0.6,0.3,1.1-0.1,1.6-1.1c0,1.6-0.2,2.8-0.7,3.5c-0.5,0.7-0.9,0.9-1.4,0.7
		l-0.6-0.3l-1.9-0.9C334.8,230.3,333.7,229.2,332.8,227.8z M334.8,231.8v5.3c0,0.4,0.4,1,1.3,1.8c0.9,0.8,1.4,1.3,1.6,1.3
		c0.2,0,0.4-0.1,0.6-0.2c0.2-0.1,0.2-0.8,0.2-2v-5c0.4,0.1,0.8,0,1.1-0.3c0.3-0.3,0.6-0.7,0.7-1.2v6.6c0,1.1-0.5,2.1-1.6,3.2
		s-1.8,1.6-2.1,1.6s-0.8-0.3-1.5-1c-1.5-1.5-2.2-2.7-2.2-3.8v-4.5l1.1-1.8c0.2-0.4,0.4-0.6,0.6-0.6
		C334.7,231,334.8,231.2,334.8,231.8z"/>
	<path class="st1" d="M336.7,207.5c0.4,0,0.8,0.2,1.3,0.6c0.4,0.4,0.7,1,1,1.8c0.2,0.8,0.3,1.6,0.3,2.4c0,0.8-0.1,1.6-0.3,2.4
		c-0.2,0.8-0.5,1.3-0.9,1.8c-0.4,0.4-0.8,0.6-1.3,0.6c-0.4,0-0.9-0.2-1.3-0.6s-0.7-1-0.9-1.8c-0.2-0.8-0.3-1.5-0.3-2.4
		c0-0.8,0.1-1.6,0.3-2.4c0.2-0.8,0.5-1.4,1-1.8C335.8,207.7,336.2,207.5,336.7,207.5z M336.1,209.8c-0.3-0.2-0.6-0.1-0.8,0.3
		c-0.2,0.3-0.2,0.8-0.1,1.3c0.1,0.5,0.4,1.1,0.9,1.9c0.5,0.7,0.8,1.2,1.2,1.4c0.3,0.2,0.6,0.1,0.8-0.3c0.2-0.3,0.2-0.8,0.1-1.3
		c-0.1-0.5-0.4-1.1-0.9-1.9C336.8,210.5,336.4,210,336.1,209.8z"/>
	<path class="st1" d="M344.1,228.9c0-0.6-0.4-1.1-1.3-1.3c-0.3-0.1-0.4-0.3-0.4-0.7c0-0.4,0.1-1,0.2-1.6l1.5-6.6h2.8
		c0,1.3-0.1,2.4-0.2,3.3c-0.2,0.9-0.4,1.6-0.8,2c0.1-0.6,0.1-1.2,0.1-1.5c0-0.4-0.2-0.5-0.5-0.5h-1.2l-0.6,2.8
		c0.8,0.2,1.4,0.6,1.8,1.2c0.4,0.5,0.6,1.2,0.6,2.1v4.4h0.4c0.5,0,0.8,0.2,1.1,0.5c0.2,0.4,0.3,0.9,0.3,1.6c0,1.3-0.4,2.7-1.2,4.3
		l-1.6,3.2c-0.3,0.5-0.5,0.8-0.6,0.8c-0.2,0-0.2-0.2-0.2-0.6V228.9z M346,237.4c0.5-0.9,0.7-1.7,0.7-2.2c0-0.3-0.1-0.5-0.3-0.5H346
		V237.4z"/>
	<path class="st1" d="M349.5,227.8l-0.5-0.7c0-1.3,0.1-2.5,0.4-3.6l1.2-4.8h6.8c0,1.3-0.1,2.5-0.3,3.5l-0.5,2.3
		c-0.3,1.5-0.8,2.3-1.6,2.3c-0.8,0-1.8-0.7-3.1-2l1.6-2.1c0.6,0.6,1.1,0.9,1.6,0.9c0.5,0,0.9-0.3,1-0.8c0.1-0.5,0-0.8-0.3-0.8h-5.2
		l-0.6,2.6l0.8,1.3c0.5,0.9,1.3,1.6,2.3,2l2.6,1.2c0.6,0.3,1.1-0.1,1.6-1.1c0,1.6-0.2,2.8-0.7,3.5c-0.5,0.7-0.9,0.9-1.4,0.7
		l-0.6-0.3l-1.9-0.9C351.5,230.3,350.4,229.2,349.5,227.8z M349.7,233.4l1.1-1.8c0.2-0.4,0.4-0.6,0.6-0.6s0.2,0.3,0.2,0.8v5.9
		l1.9-3.8l1.9,3.8v-4.9c0.4,0.1,0.8,0,1.1-0.3c0.3-0.3,0.6-0.7,0.7-1.2v9l-0.7,1.2c-0.5,0.8-0.8,1.2-0.9,1.2s-0.4-0.4-0.9-1.3
		l-1.9-3.9l-2.2,4.6c-0.2,0.4-0.4,0.7-0.6,0.7c-0.2,0-0.2-0.2-0.2-0.6V233.4z"/>
	<path class="st1" d="M357.6,213.9l-1.4,3.2l-1.2-0.5c-1.2-0.5-2.2-0.8-3.1-0.9c-0.9,0-1.7,0.2-2.3,0.7l0.3-1.8
		c0.3-1.8,0.7-3.2,1.2-4.2c0.4-1,0.9-1.6,1.5-1.8c0.6-0.2,1.1-0.2,1.6-0.1c0.5,0.1,1.2,0.5,2,1.2c0.8,0.7,1.2,1.5,1.4,2.4
		c0.2-0.7,0.3-1.2,0.3-1.5c0-0.4-0.1-0.9-0.4-1.4l0.9-2.2l0.2,0.7c0.1,0.4,0.2,1.1,0.2,1.9C359,210.3,358.6,211.8,357.6,213.9z
		 M353.1,212.8c0.7-0.1,2,0.4,3.9,1.5l0.1-0.4l-2-1.8c-0.7-0.6-1.4-0.8-2.1-0.8c-0.7,0-1.3,1-1.9,2.8
		C351.7,213.4,352.3,212.9,353.1,212.8z"/>
	<path class="st1" d="M368.4,237.8c0,1.1-0.6,2.1-1.7,3.2c-1.1,1.1-1.8,1.6-2.2,1.6c-0.3,0-0.8-0.3-1.5-1c-0.8-0.7-1.3-1.4-1.7-2
		c-0.4-0.6-0.7-1.5-0.9-2.5c0.2-0.1,0.3-0.3,0.4-0.6c0.1-0.2,0.1-0.5,0.1-0.8v-6.9c0-0.6-0.4-1.1-1.3-1.3c-0.3-0.1-0.4-0.3-0.4-0.7
		c0-0.4,0.1-1,0.2-1.6l1.5-6.6h2.8c0,1.3-0.1,2.4-0.2,3.3c-0.2,0.9-0.4,1.6-0.8,2c0.1-0.6,0.1-1.2,0.1-1.5c0-0.4-0.2-0.5-0.5-0.5
		h-1.2l-0.6,2.8c0.8,0.2,1.4,0.6,1.8,1.2c0.4,0.5,0.6,1.2,0.6,2.1v8.2c0,0.4-0.1,0.8-0.2,1c0,0.4,0.4,0.9,1.3,1.8
		c0.9,0.9,1.5,1.3,1.8,1.3s0.4-0.1,0.6-0.2c0.2-0.1,0.2-0.8,0.2-2v-9c0-0.6-0.4-1.1-1.3-1.3c-0.3-0.1-0.4-0.3-0.4-0.7
		c0-0.4,0.1-1,0.2-1.6l1.5-6.6h2.8c0,1.3-0.1,2.4-0.2,3.3c-0.2,0.9-0.4,1.6-0.8,2c0.1-0.6,0.1-1.2,0.1-1.5c0-0.4-0.2-0.5-0.5-0.5
		h-1.2l-0.6,2.8c0.8,0.2,1.4,0.6,1.8,1.2c0.4,0.5,0.6,1.2,0.6,2.1V237.8z"/>
	<path class="st1" d="M419.1,236.6l4.5-18.7h4.4v1c-0.7,0-1.2,0.2-1.4,0.5s-0.4,0.7-0.5,1.3c0,0.5-0.1,1.6-0.1,3v15.1
		c0,0.8,0.1,1.4,0.2,1.7c0.1,0.4,0.3,0.7,0.6,0.8c0.3,0.2,0.7,0.3,1.3,0.3v1h-6.6v-1c0.7,0,1.1-0.1,1.4-0.4c0.3-0.3,0.5-0.6,0.5-1.1
		c0.1-0.4,0.1-1.2,0.1-2.2v-16.9l-5.1,21.6h-0.6l-5-20.9v14.3c0,1.6,0.2,2.9,0.5,3.8c0.4,0.9,0.9,1.5,1.8,1.8v1h-5.2v-1
		c0.7-0.1,1.3-0.6,1.7-1.5c0.4-0.8,0.6-2,0.6-3.6v-16.2c-0.3-0.5-0.6-0.9-1-1.2s-0.8-0.4-1.3-0.3v-1h4.7L419.1,236.6z M411,241.7
		h2.1c-0.2-0.2-0.4-0.5-0.6-0.9c-0.2-0.4-0.3-0.8-0.3-1.4c-0.1,0.5-0.2,0.9-0.4,1.3C411.6,241,411.4,241.4,411,241.7z M411.8,218.9
		h-0.4c0.4,0.3,0.8,0.7,1,1.2c0.2,0.5,0.5,1.3,0.7,2.3l4.7,19.3c0.1-0.5,0.2-0.9,0.2-1.2c0-0.3-0.1-0.8-0.2-1.4l-4.1-16.9
		c-0.3-1.1-0.5-1.9-0.8-2.4C412.8,219.2,412.4,218.9,411.8,218.9z M424.4,238.6v-16.9c0-1.4,0.1-2.3,0.2-2.8c-0.3,0-0.5,0.2-0.6,0.4
		c-0.1,0.2-0.2,0.5-0.2,0.9c0,0.4,0,1,0,1.9V239c0,0.8,0,1.4-0.1,1.7c-0.1,0.3-0.3,0.6-0.6,0.9h0.4c0.5,0,0.8-0.2,0.9-0.7
		C424.3,240.5,424.4,239.7,424.4,238.6z"/>
	<path class="st1" d="M429.3,235.1c0-1.5,0.2-2.9,0.6-4.1c0.4-1.2,1-2.2,1.7-2.9c0.7-0.7,1.5-1.1,2.4-1.1c0.8,0,1.6,0.3,2.3,1
		c0.7,0.7,1.2,1.6,1.6,2.9c0.4,1.2,0.6,2.6,0.6,4c0,1.1-0.1,2.2-0.4,3.2c-0.2,1-0.6,1.9-1,2.6c-0.4,0.7-0.9,1.3-1.5,1.7
		c-0.6,0.4-1.1,0.6-1.8,0.6c-0.8,0-1.6-0.3-2.3-1c-0.7-0.7-1.3-1.6-1.7-2.8C429.5,238.1,429.3,236.7,429.3,235.1z M432.9,242.4
		c-0.9-0.9-1.5-2-2-3.3c-0.4-1.3-0.7-2.6-0.7-4.1c0-1.1,0.1-2.1,0.3-3c0.2-0.9,0.5-1.6,0.8-2.2c0.3-0.6,0.8-1.3,1.3-1.9
		c-0.7,0.4-1.3,1-1.7,1.8c-0.5,0.8-0.8,1.6-1,2.6c-0.2,1-0.3,2-0.3,3.1c0,0.8,0.1,1.6,0.2,2.3c0.1,0.8,0.4,1.5,0.6,2.1
		c0.3,0.6,0.6,1.2,1,1.6C431.9,241.8,432.4,242.1,432.9,242.4z M431.8,234.1c0,2.5,0.2,4.4,0.6,5.9c0.4,1.4,1,2.1,1.6,2.1
		c0.3,0,0.7-0.2,0.9-0.7c0.3-0.5,0.5-1.2,0.7-2.2c0.2-0.9,0.3-2.1,0.3-3.5c0-2.4-0.2-4.3-0.6-5.7c-0.4-1.4-0.9-2-1.6-2
		c-0.6,0-1.1,0.5-1.5,1.5C432,230.6,431.8,232.1,431.8,234.1z M435.4,241.5c0.5-0.5,0.9-1.2,1.2-2.3s0.4-2.3,0.4-3.8
		c0-3.7-0.7-6.1-2-7.3c0.5,0.8,0.8,1.8,1,3c0.2,1.2,0.3,2.8,0.3,4.8c0,1.3-0.1,2.3-0.2,3.2C436,240,435.7,240.8,435.4,241.5z"/>
	<path class="st1" d="M445.4,219.5l3.1-1.8h0.4v21.8c0,0.6,0.1,1,0.3,1.3c0.2,0.2,0.5,0.3,1,0.3v0.9l-3.6,1.1v-2c-1,1.4-2,2-3,2
		c-0.6,0-1.1-0.2-1.6-0.6c-0.5-0.4-0.9-1-1.3-1.7c-0.4-0.7-0.6-1.6-0.8-2.6c-0.2-1-0.3-2-0.3-3c0-1.5,0.2-2.9,0.6-4.2s1-2.2,1.7-2.9
		c0.7-0.7,1.5-1,2.4-1c0.6,0,1.3,0.3,2.1,0.8v-4.3c0-1-0.1-1.7-0.2-2.1c-0.1-0.4-0.5-0.9-1-1.2V219.5z M443.5,227.9
		c-0.6,0.2-1,0.5-1.4,1c-0.6,0.6-1.1,1.5-1.4,2.7s-0.5,2.4-0.5,3.8c0,1.3,0.2,2.5,0.5,3.6c0.3,1.1,0.7,2,1.3,2.6
		c0.6,0.6,1.2,1,1.9,1c0.5,0,0.9-0.1,1.3-0.4c-0.3,0-0.5,0.1-0.6,0.1c-0.4,0-0.9-0.2-1.3-0.5c-0.4-0.3-0.8-0.8-1.2-1.4
		c-0.4-0.6-0.6-1.3-0.9-2.2c-0.2-0.9-0.3-1.8-0.3-2.8C440.8,232.2,441.7,229.7,443.5,227.9z M446.7,239.8v-10.3
		c-0.2-0.5-0.5-0.9-0.8-1.1c-0.3-0.3-0.6-0.4-1-0.4c-0.5,0-0.9,0.3-1.3,0.8c-0.4,0.5-0.7,1.3-1,2.3c-0.2,1-0.4,2.3-0.4,3.8
		c0,1.3,0.1,2.4,0.3,3.3c0.2,0.9,0.5,1.7,0.9,2.1c0.4,0.5,0.8,0.7,1.3,0.7C445.5,241.1,446.1,240.6,446.7,239.8z M446.3,219.9h-0.3
		c0.5,0.4,0.8,0.8,0.9,1.3c0.1,0.4,0.2,1,0.2,1.8v19.3c0.2-0.2,0.4-0.4,0.5-0.6c0.1-0.2,0.2-0.6,0.2-1V223c0-1-0.1-1.8-0.3-2.3
		C447.2,220.2,446.8,219.9,446.3,219.9z"/>
	<path class="st1" d="M459.1,238.3l0.4,0.5c-0.3,1-0.7,1.8-1.1,2.4c-0.4,0.6-0.9,1.1-1.4,1.4c-0.5,0.3-1,0.5-1.6,0.5
		c-0.7,0-1.4-0.3-2.1-0.9c-0.6-0.6-1.1-1.5-1.5-2.7c-0.4-1.2-0.6-2.5-0.6-4c0-1.2,0.1-2.3,0.3-3.3c0.2-1,0.5-1.9,0.9-2.7
		c0.4-0.8,0.9-1.4,1.4-1.8c0.5-0.4,1.1-0.7,1.7-0.7c0.6,0,1.2,0.2,1.7,0.7c0.6,0.4,1,1,1.3,1.8c0.2,0.6,0.4,1.1,0.5,1.7
		c0.1,0.6,0.2,1.3,0.2,2.1h-6.2c0,1.2,0.1,2.2,0.4,3.1c0.2,0.8,0.5,1.5,0.8,2c0.3,0.5,0.7,0.9,1.1,1.1c0.4,0.2,0.8,0.3,1.1,0.3
		C457.6,239.9,458.4,239.4,459.1,238.3z M453.5,228.8c-1.3,1.7-1.9,4-1.9,6.8c0,2,0.4,3.7,1.1,5c0.8,1.3,1.6,1.9,2.6,1.9
		c0.6,0,1.2-0.2,1.7-0.6c0.6-0.4,1.1-1,1.5-1.8c-0.4,0.5-0.8,0.8-1.3,1.1c-0.4,0.3-0.9,0.4-1.5,0.4c-1,0-1.9-0.6-2.5-1.8
		c-0.7-1.2-1-2.8-1-4.7c0-1.2,0.1-2.3,0.3-3.3C452.8,230.8,453.1,229.8,453.5,228.8z M453.4,232.2h3.6v-0.6c0-0.7-0.1-1.3-0.2-1.8
		c-0.1-0.5-0.3-0.9-0.6-1.2c-0.2-0.3-0.5-0.4-0.9-0.4c-0.5,0-1,0.4-1.3,1.2C453.7,230.2,453.5,231.1,453.4,232.2z M457.3,232.2h0.7
		c0-1.3-0.2-2.3-0.5-2.9c-0.3-0.6-0.8-1-1.5-1.3c0.4,0.3,0.7,0.8,0.9,1.3c0.2,0.5,0.3,1.4,0.3,2.5V232.2z"/>
	<path class="st1" d="M464.2,227v2.7c0.5-1,0.9-1.7,1.2-2.1c0.3-0.4,0.6-0.6,1-0.6c0.3,0,0.6,0.2,0.9,0.6c0.2,0.4,0.4,0.9,0.4,1.6
		c0,0.7-0.1,1.2-0.3,1.6c-0.2,0.4-0.5,0.7-0.8,0.7c-0.1,0-0.3,0-0.5-0.1c-0.2-0.1-0.3-0.2-0.4-0.4c-0.1-0.1-0.1-0.2-0.2-0.3
		c-0.1-0.1-0.1-0.2-0.2-0.2c-0.1-0.1-0.1-0.1-0.2-0.1c-0.1,0-0.3,0.1-0.4,0.3c-0.1,0.2-0.3,0.4-0.4,0.7v8.4c0,0.6,0,1,0.1,1.3
		c0.1,0.3,0.3,0.4,0.5,0.5c0.2,0.1,0.6,0.1,1.1,0.1v1h-5.5v-1h0.3c0.8,0,1.2-0.5,1.2-1.6v-7.9c0-1.3-0.5-2.3-1.5-2.8v-0.6l3.3-1.8
		H464.2z M462.2,232.2v8c0,0.4,0,0.7-0.1,0.9c-0.1,0.2-0.2,0.4-0.3,0.6c0.4-0.1,0.7-0.2,0.8-0.5c0.2-0.3,0.3-0.8,0.3-1.5v-7.4
		c0-1-0.1-1.7-0.3-2.2c-0.2-0.5-0.5-0.7-1-0.7c0,0-0.1,0-0.2,0c-0.1,0-0.2,0-0.2,0C461.9,229.9,462.2,230.9,462.2,232.2z
		 M464.9,229.7c0.2,0,0.4,0.1,0.6,0.3c0.4,0.6,0.8,0.9,1.1,0.9c0.4,0,0.6-0.4,0.8-1.2c-0.2,0.2-0.3,0.2-0.4,0.2
		c-0.2,0-0.4-0.1-0.6-0.3c-0.3-0.4-0.5-0.5-0.6-0.5C465.5,229.1,465.2,229.3,464.9,229.7z"/>
	<path class="st1" d="M471.9,227v2.3c0.6-0.8,1.1-1.3,1.6-1.7c0.5-0.4,1.1-0.6,1.7-0.6c1.9,0,2.9,1.6,2.9,4.9v8
		c0,0.8,0.1,1.2,0.3,1.4c0.2,0.2,0.5,0.3,1,0.3v1h-4.9v-1c0.4,0,0.8-0.1,1-0.4c0.2-0.2,0.3-0.7,0.3-1.5v-8.4c0-0.6-0.1-1.1-0.2-1.6
		c-0.1-0.4-0.3-0.7-0.5-1c-0.2-0.2-0.5-0.3-0.8-0.3c-0.4,0-0.8,0.2-1.1,0.5c-0.4,0.3-0.8,0.9-1.2,1.6v9.2c0,0.5,0.1,0.9,0.2,1.2
		c0.1,0.3,0.2,0.5,0.4,0.5c0.2,0.1,0.4,0.1,0.7,0.1v1h-4.9v-1c0.4,0,0.7-0.1,1-0.3c0.2-0.2,0.3-0.6,0.3-1.3v-7.7
		c0-0.8-0.1-1.4-0.3-1.9c-0.2-0.5-0.5-0.8-1-1.1v-0.6l3.2-1.7H471.9z M469.9,231.7v8c0,0.5,0,0.9-0.1,1.1c0,0.2-0.1,0.5-0.3,0.8
		c0.7-0.1,1-0.7,1-1.9v-8.3c0-0.6-0.1-1.1-0.4-1.5c-0.2-0.4-0.5-0.6-0.8-0.6c0,0-0.1,0-0.2,0c-0.1,0-0.1,0-0.2,0
		C469.6,229.8,469.9,230.6,469.9,231.7z M476.1,231.2v8.6c0,0.4,0,0.6,0,0.8c0,0.2,0,0.3-0.1,0.5c0,0.2-0.1,0.4-0.3,0.6h0.2
		c0.4,0,0.6-0.2,0.7-0.7c0.1-0.4,0.2-1.1,0.2-2v-7.7c0-1-0.1-1.8-0.4-2.3c-0.3-0.5-0.7-0.8-1.4-0.9c0.4,0.3,0.6,0.6,0.8,1.1
		C476,229.7,476.1,230.3,476.1,231.2z"/>
	<path class="st1" d="M490.4,231.4v7.4c0,0.7,0.1,1.2,0.2,1.6c0.1,0.4,0.3,0.6,0.5,0.8c0.2,0.2,0.5,0.3,0.9,0.3c0.4,0,0.7,0.1,1,0.1
		v1h-7.4v-1c0.6,0,1-0.1,1.2-0.2c0.3-0.1,0.5-0.2,0.7-0.5c0.2-0.2,0.3-0.5,0.3-0.9c0.1-0.4,0.1-0.9,0.1-1.5v-15.4
		c0-1.3,0-2.2-0.1-2.7s-0.3-0.9-0.6-1.2c-0.3-0.3-0.9-0.4-1.6-0.4v-1h7c0.3,0,1.1,0.1,2.2,0.3c0.4,0.1,0.8,0.3,1.2,0.6
		c0.4,0.3,0.8,0.8,1.2,1.3c0.4,0.6,0.7,1.2,0.9,2c0.2,0.8,0.3,1.6,0.3,2.5c0,1-0.1,1.9-0.4,2.7s-0.6,1.5-1.1,2.1
		c-0.5,0.6-1.1,1.1-1.8,1.4c-0.7,0.3-1.6,0.5-2.6,0.5H490.4z M488.2,223v16.4c0,1.1-0.2,1.8-0.7,2.2h0.3c0.8,0,1.1-0.6,1.1-1.8v-16
		c0-1.4,0-2.4,0-2.8c0-0.4-0.1-0.8-0.1-1.1c-0.1-0.3-0.2-0.5-0.4-0.7c-0.2-0.1-0.5-0.2-0.9-0.3c0.3,0.2,0.5,0.5,0.6,0.8
		c0.1,0.3,0.2,0.7,0.2,1.2C488.2,221.3,488.2,222.1,488.2,223z M490.4,230.5h1.4c0.9,0,1.6-0.2,2.1-0.5c0.6-0.4,1-1,1.3-1.8
		c0.3-0.8,0.5-2,0.5-3.4c0-2.1-0.4-3.7-1.3-4.8c-0.3-0.4-0.7-0.7-1-0.8c-0.3-0.1-0.8-0.2-1.3-0.2c-0.6,0-1,0.1-1.2,0.4
		c-0.3,0.3-0.4,0.7-0.5,1.3c-0.1,0.6-0.1,1.4-0.1,2.5V230.5z M494.3,230.3c0.8-0.2,1.4-0.8,1.8-1.7c0.4-0.9,0.6-2.2,0.6-3.8
		c0-1.7-0.2-3-0.6-3.9c-0.4-0.9-1-1.4-1.8-1.7c0.4,0.3,0.7,0.8,1,1.3c0.3,0.5,0.5,1.2,0.6,1.9c0.1,0.7,0.2,1.5,0.2,2.4
		C496.1,227.6,495.5,229.4,494.3,230.3z"/>
	<path class="st1" d="M511,241.7v1h-5v-1c0.3,0,0.5-0.1,0.6-0.1c0.1,0,0.3-0.1,0.4-0.3c0.1-0.1,0.2-0.3,0.2-0.6
		c0.1-0.3,0.1-0.6,0.1-1v-8.2c0-1.1-0.1-1.9-0.4-2.4c-0.3-0.5-0.6-0.8-1-0.8c-0.7,0-1.5,0.7-2.4,2.2v9.4c0,0.7,0.1,1.1,0.3,1.4
		c0.2,0.2,0.6,0.4,1.1,0.4v1h-5v-1c0.5,0,0.8-0.1,1-0.3c0.2-0.2,0.3-0.6,0.3-1.2v-17.1c0-1.6-0.5-2.6-1.4-3v-0.7l3.4-1.8h0.4v11.8
		c0.5-0.7,1-1.3,1.6-1.7c0.6-0.4,1.1-0.6,1.7-0.6c0.6,0,1.1,0.2,1.5,0.5s0.8,0.9,1,1.6c0.2,0.7,0.4,1.6,0.4,2.7v7.3
		c0,0.7,0,1.2,0,1.5c0,0.3,0.1,0.5,0.3,0.8c0.2,0.2,0.4,0.3,0.8,0.3H511z M501.5,223.1v16.6c0,0.5,0,0.9-0.1,1.1
		c0,0.2-0.1,0.5-0.2,0.7h0.3c0.2,0,0.3-0.1,0.5-0.4c0.2-0.3,0.2-0.7,0.2-1.3V223c0-0.8-0.1-1.4-0.2-1.9c-0.1-0.4-0.3-0.7-0.5-0.9
		c-0.2-0.2-0.5-0.3-0.7-0.3c-0.1,0-0.3,0-0.6,0.1c0.5,0.3,0.8,0.7,1,1.2C501.4,221.7,501.5,222.3,501.5,223.1z M507.7,230.8v9.1
		c0,0.4,0,0.8-0.1,1c-0.1,0.2-0.2,0.5-0.3,0.7c0.4,0,0.7-0.2,0.9-0.5s0.2-0.9,0.2-1.7V232c0-0.9,0-1.6-0.1-2.1
		c-0.1-0.5-0.2-0.9-0.5-1.2c-0.3-0.3-0.7-0.5-1.2-0.6C507.3,228.5,507.7,229.5,507.7,230.8z"/>
	<path class="st1" d="M511.9,235.1c0-1.5,0.2-2.9,0.6-4.1c0.4-1.2,1-2.2,1.7-2.9c0.7-0.7,1.5-1.1,2.4-1.1c0.8,0,1.6,0.3,2.3,1
		c0.7,0.7,1.2,1.6,1.6,2.9c0.4,1.2,0.6,2.6,0.6,4c0,1.1-0.1,2.2-0.4,3.2c-0.2,1-0.6,1.9-1,2.6c-0.4,0.7-0.9,1.3-1.5,1.7
		c-0.6,0.4-1.1,0.6-1.8,0.6c-0.8,0-1.6-0.3-2.3-1c-0.7-0.7-1.3-1.6-1.7-2.8C512.1,238.1,511.9,236.7,511.9,235.1z M515.5,242.4
		c-0.9-0.9-1.5-2-2-3.3c-0.4-1.3-0.7-2.6-0.7-4.1c0-1.1,0.1-2.1,0.3-3c0.2-0.9,0.5-1.6,0.8-2.2c0.3-0.6,0.8-1.3,1.3-1.9
		c-0.7,0.4-1.3,1-1.7,1.8c-0.5,0.8-0.8,1.6-1,2.6c-0.2,1-0.3,2-0.3,3.1c0,0.8,0.1,1.6,0.2,2.3c0.1,0.8,0.4,1.5,0.6,2.1
		s0.6,1.2,1,1.6C514.5,241.8,515,242.1,515.5,242.4z M514.5,234.1c0,2.5,0.2,4.4,0.6,5.9c0.4,1.4,1,2.1,1.6,2.1
		c0.3,0,0.7-0.2,0.9-0.7c0.3-0.5,0.5-1.2,0.7-2.2c0.2-0.9,0.3-2.1,0.3-3.5c0-2.4-0.2-4.3-0.6-5.7c-0.4-1.4-0.9-2-1.6-2
		c-0.6,0-1.1,0.5-1.5,1.5C514.6,230.6,514.5,232.1,514.5,234.1z M518,241.5c0.5-0.5,0.9-1.2,1.2-2.3s0.4-2.3,0.4-3.8
		c0-3.7-0.7-6.1-2-7.3c0.5,0.8,0.8,1.8,1,3c0.2,1.2,0.3,2.8,0.3,4.8c0,1.3-0.1,2.3-0.2,3.2C518.6,240,518.4,240.8,518,241.5z"/>
	<path class="st1" d="M525.8,227v2.3c0.6-0.8,1.1-1.3,1.6-1.7c0.5-0.4,1.1-0.6,1.7-0.6c1.9,0,2.9,1.6,2.9,4.9v8
		c0,0.8,0.1,1.2,0.3,1.4c0.2,0.2,0.5,0.3,1,0.3v1h-4.9v-1c0.4,0,0.8-0.1,1-0.4c0.2-0.2,0.3-0.7,0.3-1.5v-8.4c0-0.6-0.1-1.1-0.2-1.6
		c-0.1-0.4-0.3-0.7-0.5-1c-0.2-0.2-0.5-0.3-0.8-0.3c-0.4,0-0.8,0.2-1.1,0.5c-0.4,0.3-0.8,0.9-1.2,1.6v9.2c0,0.5,0.1,0.9,0.2,1.2
		c0.1,0.3,0.2,0.5,0.4,0.5c0.2,0.1,0.4,0.1,0.7,0.1v1h-4.9v-1c0.4,0,0.7-0.1,1-0.3c0.2-0.2,0.3-0.6,0.3-1.3v-7.7
		c0-0.8-0.1-1.4-0.3-1.9c-0.2-0.5-0.5-0.8-1-1.1v-0.6l3.2-1.7H525.8z M523.9,231.7v8c0,0.5,0,0.9-0.1,1.1c0,0.2-0.1,0.5-0.3,0.8
		c0.7-0.1,1-0.7,1-1.9v-8.3c0-0.6-0.1-1.1-0.4-1.5c-0.2-0.4-0.5-0.6-0.8-0.6c0,0-0.1,0-0.2,0c-0.1,0-0.1,0-0.2,0
		C523.6,229.8,523.9,230.6,523.9,231.7z M530,231.2v8.6c0,0.4,0,0.6,0,0.8c0,0.2,0,0.3-0.1,0.5c0,0.2-0.1,0.4-0.3,0.6h0.2
		c0.4,0,0.6-0.2,0.7-0.7c0.1-0.4,0.2-1.1,0.2-2v-7.7c0-1-0.1-1.8-0.4-2.3c-0.3-0.5-0.7-0.8-1.4-0.9c0.4,0.3,0.6,0.6,0.8,1.1
		C529.9,229.7,530,230.3,530,231.2z"/>
	<path class="st1" d="M542.2,238.3l0.4,0.5c-0.3,1-0.7,1.8-1.1,2.4c-0.4,0.6-0.9,1.1-1.4,1.4c-0.5,0.3-1,0.5-1.6,0.5
		c-0.7,0-1.4-0.3-2.1-0.9c-0.6-0.6-1.1-1.5-1.5-2.7c-0.4-1.2-0.6-2.5-0.6-4c0-1.2,0.1-2.3,0.3-3.3c0.2-1,0.5-1.9,0.9-2.7
		c0.4-0.8,0.9-1.4,1.4-1.8c0.5-0.4,1.1-0.7,1.7-0.7c0.6,0,1.2,0.2,1.7,0.7c0.6,0.4,1,1,1.3,1.8c0.2,0.6,0.4,1.1,0.5,1.7
		c0.1,0.6,0.2,1.3,0.2,2.1h-6.2c0,1.2,0.1,2.2,0.4,3.1c0.2,0.8,0.5,1.5,0.8,2c0.3,0.5,0.7,0.9,1.1,1.1c0.4,0.2,0.8,0.3,1.1,0.3
		C540.7,239.9,541.5,239.4,542.2,238.3z M536.6,228.8c-1.3,1.7-1.9,4-1.9,6.8c0,2,0.4,3.7,1.1,5c0.8,1.3,1.6,1.9,2.6,1.9
		c0.6,0,1.2-0.2,1.7-0.6c0.6-0.4,1.1-1,1.5-1.8c-0.4,0.5-0.8,0.8-1.3,1.1c-0.4,0.3-0.9,0.4-1.5,0.4c-1,0-1.9-0.6-2.5-1.8
		c-0.7-1.2-1-2.8-1-4.7c0-1.2,0.1-2.3,0.3-3.3C535.9,230.8,536.2,229.8,536.6,228.8z M536.5,232.2h3.6v-0.6c0-0.7-0.1-1.3-0.2-1.8
		c-0.1-0.5-0.3-0.9-0.6-1.2c-0.2-0.3-0.5-0.4-0.9-0.4c-0.5,0-1,0.4-1.3,1.2C536.7,230.2,536.5,231.1,536.5,232.2z M540.4,232.2h0.7
		c0-1.3-0.2-2.3-0.5-2.9c-0.3-0.6-0.8-1-1.5-1.3c0.4,0.3,0.7,0.8,0.9,1.3c0.2,0.5,0.3,1.4,0.3,2.5V232.2z"/>
	<path class="st1" d="M549.6,233.7h0.7c0.4,1.8,0.8,3.4,1.3,4.6c0.5,1.3,1.1,2.2,1.7,2.8c0.6,0.6,1.3,0.9,2,0.9
		c0.8,0,1.6-0.5,2.2-1.4c0.6-0.9,0.9-2.1,0.9-3.5c0-1.3-0.2-2.4-0.6-3.1c-0.4-0.7-0.9-1.3-1.4-1.6c-0.6-0.3-1.3-0.6-2.2-0.8
		c-0.9-0.3-1.6-0.5-1.9-0.7c-0.6-0.3-1.1-0.8-1.5-1.4c-0.4-0.6-0.7-1.3-0.9-2.2c-0.2-0.9-0.3-1.8-0.3-2.8c0-0.9,0.1-1.8,0.3-2.7
		c0.2-0.9,0.5-1.6,0.8-2.3c0.3-0.7,0.8-1.2,1.3-1.6c0.5-0.4,1.1-0.6,1.7-0.6c0.4,0,1,0.1,1.6,0.3c0.6,0.2,1.1,0.3,1.4,0.3
		c0.4,0,0.7-0.1,1-0.4h0.8l0.4,7.2H558c-0.7-2.1-1.4-3.8-2.1-4.9c-0.7-1.1-1.6-1.7-2.6-1.7c-0.5,0-0.9,0.2-1.4,0.6
		c-0.4,0.4-0.8,0.9-1,1.6c-0.3,0.7-0.4,1.4-0.4,2.3c0,1.2,0.2,2.1,0.7,2.7c0.5,0.6,1.1,1.1,2.1,1.4c0.9,0.3,1.7,0.6,2.4,0.8
		c0.7,0.2,1.3,0.5,1.7,0.9c0.8,0.7,1.4,1.6,1.8,2.7s0.6,2.5,0.6,3.9c0,1.4-0.2,2.7-0.6,3.9c-0.4,1.2-0.9,2.2-1.7,2.9
		c-0.7,0.7-1.5,1.1-2.4,1.1c-0.5,0-0.9-0.1-1.1-0.2c-0.3-0.1-0.7-0.4-1.3-0.8c-0.6-0.4-1.1-0.6-1.4-0.6c-0.5,0-1,0.4-1.3,1.1h-0.6
		V233.7z M549.9,222.6c-0.1,0.9-0.2,1.6-0.2,2.2c0,0.6,0.1,1.2,0.2,1.9c0.1,0.6,0.3,1.2,0.5,1.8c0.2,0.6,0.5,1,0.8,1.4
		c0.4,0.5,0.8,0.8,1.3,1c0.5,0.2,1.2,0.4,2.1,0.7c0.9,0.3,1.6,0.5,1.9,0.8c0.7,0.4,1.2,1,1.5,1.9c0.4,0.8,0.5,1.8,0.5,3
		c0,0.8-0.1,1.7-0.4,2.7c0.6-1,0.8-2.2,0.8-3.5c0-1.4-0.2-2.5-0.6-3.2c-0.4-0.8-0.9-1.4-1.5-1.7c-0.6-0.4-1.4-0.7-2.5-1
		c-1.1-0.3-1.6-0.5-1.6-0.5c-1-0.4-1.7-1.2-2.2-2.2c-0.5-1.1-0.7-2.3-0.7-3.7c0-0.3,0-0.5,0-0.6S549.9,222.7,549.9,222.6z
		 M549.9,237v4.7c0.2-0.4,0.4-0.7,0.5-0.9c0.2-0.1,0.4-0.2,0.8-0.2c-0.2-0.5-0.4-0.8-0.5-1c-0.1-0.2-0.2-0.5-0.4-1
		C550.3,238.3,550.1,237.7,549.9,237z M557.6,222.4l-0.3-3.3c-0.2,0.1-0.4,0.2-0.7,0.2c-0.2,0-0.5-0.1-0.8-0.2
		c0.3,0.3,0.5,0.6,0.7,1c0.2,0.4,0.4,0.8,0.6,1.3C557.4,222,557.5,222.3,557.6,222.4z"/>
	<path class="st1" d="M572.6,241.7v1h-5v-1c0.3,0,0.5-0.1,0.6-0.1c0.1,0,0.3-0.1,0.4-0.3c0.1-0.1,0.2-0.3,0.2-0.6
		c0.1-0.3,0.1-0.6,0.1-1v-8.2c0-1.1-0.1-1.9-0.4-2.4c-0.3-0.5-0.6-0.8-1-0.8c-0.7,0-1.5,0.7-2.4,2.2v9.4c0,0.7,0.1,1.1,0.3,1.4
		c0.2,0.2,0.6,0.4,1.1,0.4v1h-5v-1c0.5,0,0.8-0.1,1-0.3c0.2-0.2,0.3-0.6,0.3-1.2v-17.1c0-1.6-0.5-2.6-1.4-3v-0.7l3.4-1.8h0.4v11.8
		c0.5-0.7,1-1.3,1.6-1.7c0.6-0.4,1.1-0.6,1.7-0.6c0.6,0,1.1,0.2,1.5,0.5s0.8,0.9,1,1.6c0.2,0.7,0.4,1.6,0.4,2.7v7.3
		c0,0.7,0,1.2,0,1.5c0,0.3,0.1,0.5,0.3,0.8c0.2,0.2,0.4,0.3,0.8,0.3H572.6z M563,223.1v16.6c0,0.5,0,0.9-0.1,1.1
		c0,0.2-0.1,0.5-0.2,0.7h0.3c0.2,0,0.3-0.1,0.5-0.4c0.2-0.3,0.2-0.7,0.2-1.3V223c0-0.8-0.1-1.4-0.2-1.9c-0.1-0.4-0.3-0.7-0.5-0.9
		c-0.2-0.2-0.5-0.3-0.7-0.3c-0.1,0-0.3,0-0.6,0.1c0.5,0.3,0.8,0.7,1,1.2C562.9,221.7,563,222.3,563,223.1z M569.2,230.8v9.1
		c0,0.4,0,0.8-0.1,1c-0.1,0.2-0.2,0.5-0.3,0.7c0.4,0,0.7-0.2,0.9-0.5s0.2-0.9,0.2-1.7V232c0-0.9,0-1.6-0.1-2.1
		c-0.1-0.5-0.2-0.9-0.5-1.2c-0.3-0.3-0.7-0.5-1.2-0.6C568.8,228.5,569.2,229.5,569.2,230.8z"/>
	<path class="st1" d="M573.5,235.1c0-1.5,0.2-2.9,0.6-4.1c0.4-1.2,1-2.2,1.7-2.9c0.7-0.7,1.5-1.1,2.4-1.1c0.8,0,1.6,0.3,2.3,1
		c0.7,0.7,1.2,1.6,1.6,2.9c0.4,1.2,0.6,2.6,0.6,4c0,1.1-0.1,2.2-0.4,3.2c-0.2,1-0.6,1.9-1,2.6c-0.4,0.7-0.9,1.3-1.5,1.7
		c-0.6,0.4-1.1,0.6-1.8,0.6c-0.8,0-1.6-0.3-2.3-1c-0.7-0.7-1.3-1.6-1.7-2.8C573.7,238.1,573.5,236.7,573.5,235.1z M577.1,242.4
		c-0.9-0.9-1.5-2-2-3.3c-0.4-1.3-0.7-2.6-0.7-4.1c0-1.1,0.1-2.1,0.3-3c0.2-0.9,0.5-1.6,0.8-2.2c0.3-0.6,0.8-1.3,1.3-1.9
		c-0.7,0.4-1.3,1-1.7,1.8c-0.5,0.8-0.8,1.6-1,2.6c-0.2,1-0.3,2-0.3,3.1c0,0.8,0.1,1.6,0.2,2.3c0.1,0.8,0.4,1.5,0.6,2.1
		c0.3,0.6,0.6,1.2,1,1.6C576.1,241.8,576.5,242.1,577.1,242.4z M576,234.1c0,2.5,0.2,4.4,0.6,5.9c0.4,1.4,1,2.1,1.6,2.1
		c0.3,0,0.7-0.2,0.9-0.7c0.3-0.5,0.5-1.2,0.7-2.2c0.2-0.9,0.3-2.1,0.3-3.5c0-2.4-0.2-4.3-0.6-5.7c-0.4-1.4-0.9-2-1.6-2
		c-0.6,0-1.1,0.5-1.5,1.5C576.2,230.6,576,232.1,576,234.1z M579.6,241.5c0.5-0.5,0.9-1.2,1.2-2.3c0.3-1,0.4-2.3,0.4-3.8
		c0-3.7-0.7-6.1-2-7.3c0.5,0.8,0.8,1.8,1,3c0.2,1.2,0.3,2.8,0.3,4.8c0,1.3-0.1,2.3-0.2,3.2C580.1,240,579.9,240.8,579.6,241.5z"/>
	<path class="st1" d="M587.2,227v1.9c0.5-0.6,0.9-1.1,1.4-1.4c0.4-0.3,0.9-0.5,1.5-0.5c0.5,0,1,0.2,1.5,0.6c0.5,0.4,0.9,0.9,1.3,1.6
		c0.4,0.7,0.7,1.5,0.9,2.5c0.2,1,0.3,2,0.3,3.1c0,1.5-0.2,2.9-0.6,4.2c-0.4,1.2-1,2.2-1.7,2.9c-0.7,0.7-1.6,1-2.5,1
		c-0.7,0-1.4-0.3-2.1-0.8v6.1c0,0.5,0,0.8,0.1,1.1c0.1,0.3,0.2,0.5,0.3,0.6c0.2,0.1,0.4,0.2,0.7,0.2h0.5v1h-5.3v-1
		c0.3,0,0.6-0.1,0.8-0.1c0.2-0.1,0.3-0.2,0.4-0.4c0.1-0.2,0.1-0.6,0.1-1v-16.5c0-0.9-0.1-1.6-0.3-2c-0.2-0.5-0.6-0.8-1-1.1v-0.7
		l3.3-1.2H587.2z M585.9,247.7v-15.8c0-1.1-0.1-1.9-0.4-2.4c-0.3-0.5-0.7-0.7-1.3-0.6c0.4,0.4,0.6,0.7,0.8,1.1
		c0.1,0.4,0.2,1,0.2,1.9v16.5c0,0.5,0,0.8-0.1,1.1c-0.1,0.3-0.2,0.5-0.3,0.7c0.5-0.1,0.8-0.3,0.9-0.7
		C585.8,249.3,585.9,248.6,585.9,247.7z M587.2,230.2v10.3c0.6,1,1.3,1.5,1.8,1.5c0.5,0,0.9-0.2,1.3-0.7s0.7-1.2,0.9-2.2
		c0.2-1,0.4-2.2,0.4-3.7c0-1.4-0.1-2.6-0.3-3.6c-0.2-1-0.5-1.7-0.9-2.2c-0.4-0.5-0.8-0.7-1.3-0.7C588.5,229,587.9,229.4,587.2,230.2
		z M588.9,228.4h0.2c0.9,0,1.6,0.6,2.1,1.8c0.5,1.2,0.8,3,0.8,5.2c0,1.7-0.1,3.1-0.4,4s-0.6,1.7-1.1,2.4c0.5-0.3,0.9-0.7,1.2-1.3
		c0.3-0.6,0.5-1.3,0.7-2.2c0.2-0.9,0.2-1.9,0.2-2.9c0-1.3-0.1-2.4-0.3-3.4c-0.2-1-0.4-1.7-0.7-2.3c-0.3-0.6-0.6-1-0.9-1.2
		c-0.3-0.3-0.6-0.4-0.9-0.4C589.5,228,589.2,228.1,588.9,228.4z"/>
</g>
<g>
	<path class="st0" d="M223.9,121.5c0,19.5-3.1,29.2-9.4,29.2c-6.5,0-10.4-10-11.6-30V80.7c0-4,1.1-8.3,3.3-12.9
		c2.2-4.6,4.7-6.9,7.5-6.9c1.4,0,3.2,1.5,5.4,4.5c2.3,3,4.4,4.5,6.5,4.5c-0.5,4.1-1.3,7.5-2.6,10.2c-1.3,2.8-2.8,4.2-4.5,4.4
		c-1.7,0.2-3.2-0.5-4.4-2.1c-1.2-1.6-2.4-2.4-3.5-2.4c-1.1,0-2.1,1.2-2.9,3.6c-0.8,2.4-1.2,5.2-1.2,8.4v17.5c0,4.5,0.6,8.8,1.7,13.1
		c1.2,4.3,3.5,6.1,7,5.5c3.5-0.6,5.2-3.3,5.2-8c0-1.6-0.3-2.9-0.9-3.8c-0.6-0.9-1.3-0.8-1.9,0.4c-0.6,1.2-1.8,1.8-3.6,1.8
		c-3.3,0-5-3.6-5-10.7c0-9.5,2.4-14.3,7.1-14.3c1.2,0,2.5,0.7,3.8,2.2c1.4,1.5,2.4,3.8,3,7C223.6,106.1,223.9,112.3,223.9,121.5z"/>
	<path class="st0" d="M286.9,114.7c0,9.4-2.3,17.7-7,25c-4.7,7.3-11,11-18.9,11c-8.6,0-15.1-2.7-19.4-8.2
		c-4.3-5.5-6.7-12.7-7.2-21.7c5.6,0,9.9-0.8,12.9-2.5c3-1.7,4.5-3.9,4.5-6.6c0-2.7-2-3.8-5.9-3.4c-3.9,0.4-7.8,1.6-11.6,3.6V77.4
		c0-3,1.7-6.6,5-10.5c3.4-4,5.6-6,6.6-6c1,0,2.9,1.2,5.5,3.6c2.6,2.4,5.7,3.9,9,4.6c-2.5,10.5-4.9,15.8-7.1,15.8
		c-2.2,0-4.1-0.7-5.8-2.1c-1.7-1.4-3.4-1.7-5.2-0.9c-1.8,0.8-3.4,3.8-4.8,9c6.1-2.4,10.9-2.3,14.5,0.4c3.6,2.7,5.4,8.2,5.4,16.5
		c0,5.9-2.3,11.5-7,16.7c0.4,2,2,3.7,4.7,5.1c2.7,1.4,6.3,2.1,10.7,2.1c4.8,0,8.6-1.2,11.5-3.6c2.9-2.4,4.3-6.4,4.3-12
		c0-2.2-1.2-4.2-3.6-6.1c-2.4-1.9-6.8-1.2-13.2,1.9V80.4c0-3,2.3-7,6.9-12c4.6-5,9.5-7.5,14.6-7.5c6.3,0,12.3,2.3,17.9,6.8
		c5.6,4.5,8.5,8.8,8.5,13v58.1c0,2.4-0.7,5-2.1,7.8c-1.4,2.8-3,4.2-4.9,4.2c-3.8,0-7-3.1-9.8-9.2c-2.8-6.1-4.2-11.4-4.2-15.9
		c0-2.8,2.9-5.6,8.7-8.4c5.8-2.8,8.7-7.4,8.7-14c0-4.4-3.3-9.5-9.8-15.2c-6.5-5.7-11.8-8.6-15.7-8.6c-3.3,0-6.4,0.9-9.2,2.7
		c-2.9,1.8-4.9,4.7-6.2,8.7c5.9-3.2,10.5-2.5,13.7,2.1C285.3,97.5,286.9,104.8,286.9,114.7z M308.2,126.4c0.7,0,1.1-0.9,1.1-2.6v-7
		c-1.4,2.2-2.3,3.7-2.9,4.4c-0.5,0.8-0.5,1.8-0.1,3.2C306.9,125.7,307.5,126.4,308.2,126.4z"/>
	<path class="st0" d="M328.6,89.6c4.6-1.6,8.8-1,12.4,1.7c3.6,2.7,5.4,8.2,5.4,16.5c0,5.9-2.3,11.5-7,16.7c0.4,2,2,3.7,4.7,5.1
		c2.7,1.4,6.3,2.1,10.7,2.1c4.8,0,8.9-2,12.2-5.9c3.4-3.9,6.3-9.4,8.8-16.3c0,13-2.3,23.1-7,30.4c-4.7,7.3-11,11-18.9,11
		c-8.6,0-15.1-2.7-19.4-8.2c-4.3-5.5-6.7-12.7-7.2-21.7c5.6,0,9.9-0.9,12.9-2.6c3-1.7,4.5-3.9,4.5-6.6c0-2.7-2-3.8-5.9-3.4
		c-3.9,0.4-7.8,1.6-11.6,3.6V83.9c2.1-5.8,5.4-11,10-15.8c4.5-4.8,10.5-7.2,18-7.2c6.8,0,12.6,3.1,17.4,9.3s7.2,12.9,7.2,20.2
		c0,5.7-1.2,10.8-3.5,15.3c-2.3,4.5-5.7,6.8-10,6.8c-7.1,0-10.6-4.1-10.6-12.3c0-8.2,2.2-12.3,6.7-12.3c3,0,5.1,1.3,6.3,4.1
		c-0.2,3.1,0.7,4.7,2.8,4.7c2.1,0.1,3.1-1,3.1-3.2c0-3.9-1.9-7.2-5.7-9.9s-8.3-4.1-13.5-4.1c-6.8,0-11.7,1.1-14.9,3.2
		C333.4,84.8,330.8,87.1,328.6,89.6z"/>
	<path class="st0" d="M427.4,131c2,0,4.8-2.9,8.4-8.7c3.6-5.8,7.8-8.7,12.4-8.7c2.9,0,5.6,1.8,8,5.3c2.4,3.5,3.6,7.8,3.6,12.7
		c0,5-1,9.4-3.1,13.3c-2,3.9-4.5,5.8-7.4,5.8c-2.9,0-5.1-1-6.6-3c-1.4-2-2.2-5-2.2-9c0-4,0.6-6.4,1.7-7.2c1.2-2,2.9-3,5.2-3
		c0,2,0.6,3,1.7,3c1.2,0,1.7-0.9,1.7-2.7c0-2.6-1.7-3.9-5.2-3.9c-3,0-5.9,4.3-8.6,12.9c-2.7,8.6-7.2,12.9-13.5,12.9
		c-4.2,0-8-2.4-11.4-7.1c-3.4-4.7-5.1-9.7-5.1-15v-7.9h3.5c4.4,0,7.9-0.8,10.3-2.5c2.4-1.7,3.7-3.9,3.7-6.6c0-2.7-2-3.8-5.9-3.4
		c-3.9,0.4-7.8,1.6-11.6,3.6V83.9c2.1-5.8,5.4-11,10-15.8c4.5-4.8,10.5-7.2,18-7.2c6.8,0,12.6,3.1,17.4,9.3s7.2,12.9,7.2,20.2
		c0,4.1-1.2,8.4-3.5,12.9c-2.3,4.5-5.7,6.8-10,6.8c-7.1,0-10.6-4.1-10.6-12.3c0-8.2,2.2-12.3,6.7-12.3c3,0,5.1,1.3,6.3,4.1
		c-0.2,3.1,0.7,4.7,2.8,4.7c2.1,0.1,3.1-1,3.1-3.2c0-2.7-1.9-5.3-5.7-7.8c-3.8-2.6-8.3-3.8-13.5-3.8c-6.8,0-11.7,1.1-14.9,3.2
		c-3.1,2.1-5.8,4.4-7.9,6.9c4.6-1.6,8.8-1,12.4,1.7c3.6,2.7,5.4,8.2,5.4,16.5c0,7.1-2.6,13.6-7.7,19.4
		C424.1,129.7,425.6,131,427.4,131z M486,174.7c0,12-3.5,18-10.5,18c-4.7,0-8.2-3-10.5-9c-2.3,6-5.8,9-10.5,9
		c-8.2,0-12.2-5.2-12.2-15.6c3.7,0,6.1-1.1,7.2-3.3c1-2.2,1.6-3.8,1.5-4.8c0-1-0.6-1.5-1.7-1.5c-1.2,0-1.7,1.4-1.7,4.2
		c-3.5,0-5.2-2-5.2-6c0-6,2-9,6.1-9s6.1,3,6.1,9c0,4-0.6,7.8-1.7,11.4c0,1.6,1.2,2.4,3.5,2.4c3.7,0,6.6-2.8,8.7-8.4
		c2.3,5.6,5.5,8.4,9.4,8.4c4.2,0,6.3-2.6,6.3-7.8v-57.4c-0.1-2-1.7-3.6-4.5-4.7c-2.9-1.1-6.6-0.4-11.2,2.2V80.4c0-3,2.2-7,6.6-12
		c4.4-5,9-7.5,13.9-7.5c6.3,0,12.3,2.3,17.9,6.8c5.6,4.5,8.5,8.8,8.5,13v58.1c0,2.4-0.7,5-2.1,7.8c-1.4,2.8-3,4.2-4.9,4.2
		c-3.8,0-7-3.1-9.8-9.2c-2.8-6.1-4.2-11.4-4.2-15.9c0-2.8,2.9-5.6,8.7-8.4c5.8-2.8,8.7-7.4,8.7-14c0-4.4-3.3-9.5-9.8-15.2
		c-6.5-5.7-11.5-8.5-15-8.5c-3.5,0-6.7,0.8-9.4,2.6c-2.8,1.8-4.6,4.7-5.7,8.7c4.1-2.2,7.7-2.3,10.9-0.2c3.2,2.1,5.4,5.1,6.5,9.2
		V174.7z M508.4,123.8v-7c-1.4,2.2-2.3,3.7-2.9,4.4c-0.5,0.8-0.5,1.8-0.1,3.2c0.5,1.4,1.1,2,1.8,2
		C508,126.4,508.4,125.6,508.4,123.8z"/>
	<path class="st0" d="M530,117.9c2,4.3,4.6,7.5,7.9,9.5c3.3,2,7.9,3,13.9,3c4.8,0,9-1.3,12.5-3.9c3.6-2.6,5.3-6.1,5.3-10.5
		c0-2.2-1.4-4.2-4.3-6.1c-2.9-1.9-7.5-1.2-13.9,1.9V77.4c0-3,1.5-6.6,4.5-10.5c3-4,4.9-6,5.8-6s2.7,1.4,5.6,4.1
		c2.9,2.7,5.4,4.1,7.5,4.1c-1.8,10.9-3.7,16.4-5.7,16.4c-2,0-3.8-0.7-5.4-2.1c-1.7-1.4-3.3-1.7-5.1-0.9c-1.7,0.8-2.9,3.6-3.6,8.4
		c5.9-3.2,10.8-2.5,14.4,2.1c3.7,4.6,5.5,11.9,5.5,21.8c0,5.5-0.8,10.6-2.4,15.3c2.5,1,5.6,1.5,9.4,1.5c4.8,0,8.6-1.2,11.5-3.6
		s4.3-6.4,4.3-12c0-2.2-1.4-4.2-4.3-6.1c-2.9-1.9-7.5-1.2-13.9,1.9V77.4c0-3,1.5-6.6,4.5-10.5c3-4,4.9-6,5.8-6s2.7,1.4,5.6,4.1
		c2.9,2.7,5.4,4.1,7.5,4.1c-1.8,10.9-3.7,16.4-5.7,16.4c-2,0-3.8-0.7-5.4-2.1c-1.7-1.4-3.3-1.7-5.1-0.9c-1.7,0.8-2.9,3.6-3.6,8.4
		c5.9-3.2,10.8-2.5,14.4,2.1c3.7,4.6,5.5,11.9,5.5,21.8c0,9.4-2.3,17.7-7,25c-4.7,7.3-10.7,11-18.2,11c-5.7,0-10.7-1.6-15.1-4.8
		c-3.8,3.2-8.7,4.8-14.7,4.8c-17,0-25.5-16.6-25.5-49.7c0-26.8,4.5-40.1,13.6-40.1c7.2,0,10.8,9.4,10.8,28.2
		c0,9.6-1.1,16.4-3.3,20.3c-2.2,3.9-4.7,5.6-7.5,5.1c-2.8-0.6-4.8-2.7-6.2-6.4c-1.4-3.7-1.4-7.5-0.1-11.6c1.3-4.1,3-6.8,5.1-8.1
		c0.9,2.4,2.1,3.8,3.7,4.4c1.8,0.7,2.9-0.5,3.3-3.4c0.3-2.9-1.2-5-4.6-6.2c-2.2-0.8-4.4,0.4-6.6,3.5c-2.2,3.1-3.6,6.7-4.1,10.8
		c-0.2,1.4-0.1,4,0.1,8C527,109.4,528.1,113.5,530,117.9z"/>
</g>
</svg>
